#!OML:ASF E:\Steps\Project 1\Capture day 1\Session 2\Subject.ASF
:FULLY-SPECIFIED
:DEGREES
906
root 9.42269 25.1417 -15.0687 -153.025 0.498677 177.942
lowerback -31.4431 -2.50051 -5.98374
upperback -2.68942 0.0671893 -0.830948
thorax 13.3916 0.187276 2.46655
lowerneck -0.579307 -1.74292 -3.093
upperneck -1.33033 -2.55378 10.4883
head -0.130307 -1.42537 3.95555
rclavicle 4.27387e-015 -9.93923e-015
rhumerus -32.7107 -15.9142 -81.5161
rradius 29.9314
rwrist -1.74926
rhand -6.66083 -53.0291
rfingers 7.12502
rthumb 19.197 -82.1017
lclavicle 4.27387e-015 -9.93923e-015
lhumerus -27.1439 0.760042 83.6772
lradius 30.9365
lwrist 0.436901
lhand -21.1738 -11.7384
lfingers 7.12502
lthumb 5.20657 18.1776
rfemur -22.1185 7.05477 17.6468
rtibia 4.05119
rfoot -17.308 -7.33199
rtoes -26.3924
lfemur -23.2465 -8.84082 -21.4015
ltibia 7.92949
lfoot 351.341 3.22646
ltoes -38.0503
907
root 9.42352 25.1427 -15.0707 -153.025 0.574296 177.942
lowerback -31.3845 -2.51343 -6.00325
upperback -2.70009 0.0501967 -0.829031
thorax 13.3553 0.179124 2.47236
lowerneck -0.888208 -1.7115 -3.20786
upperneck -1.11614 -2.53247 10.6276
head -0.00484664 -1.40344 4.02205
rclavicle 8.05078e-015 -1.82882e-014
rhumerus -32.6734 -15.9217 -81.4636
rradius 29.7705
rwrist -1.65193
rhand -6.82482 -52.6913
rfingers 7.12502
rthumb 19.0393 -81.7795
lclavicle 8.05078e-015 -1.82882e-014
lhumerus -27.334 0.953499 83.5621
lradius 30.878
lwrist 0.258754
lhand -21.1152 -12.165
lfingers 7.12502
lthumb 5.26311 17.7497
rfemur -22.1456 7.11049 17.6395
rtibia 4.24414
rfoot -16.6002 -7.39948
rtoes -28.8476
lfemur -23.2566 -8.83344 -21.4023
ltibia 7.93638
lfoot 351.327 3.32437
ltoes -38.1635
908
root 9.42299 25.1404 -15.075 -153.047 0.645476 177.93
lowerback -31.3233 -2.51408 -6.00425
upperback -2.73873 0.0494524 -0.840933
thorax 13.2848 0.183645 2.46006
lowerneck -0.812435 -1.6927 -3.16927
upperneck -1.17986 -2.50279 10.6015
head -0.0419487 -1.39247 4.00687
rclavicle -2.23633e-015 2.5842e-014
rhumerus -32.7761 -15.8982 -81.3975
rradius 29.6958
rwrist -1.58137
rhand -7.12866 -52.4265
rfingers 7.12502
rthumb 18.7471 -81.5431
lclavicle -2.23633e-015 2.5842e-014
lhumerus -27.4395 1.03761 83.4585
lradius 30.5833
lwrist 0.123742
lhand -21.0814 -12.6116
lfingers 7.12502
lthumb 5.29578 17.3022
rfemur -22.1003 7.00559 17.6506
rtibia 4.30364
rfoot -16.7688 -7.2182
rtoes -28.271
lfemur -23.2025 -8.84533 -21.4424
ltibia 7.89317
lfoot 351.354 3.39279
ltoes -38.1682
909
root 9.42231 25.1379 -15.0787 -153.044 0.673562 177.924
lowerback -31.312 -2.54124 -5.97889
upperback -2.76671 0.00818988 -0.841276
thorax 13.2512 0.170032 2.42998
lowerneck -0.654363 -1.67606 -3.11803
upperneck -1.31104 -2.46917 10.5402
head -0.116202 -1.38262 3.97838
rclavicle 1.10325e-014 -2.34566e-014
rhumerus -32.8521 -15.9427 -81.3067
rradius 29.6138
rwrist -1.43983
rhand -7.94791 -51.4716
rfingers 7.12502
rthumb 17.959 -80.6624
lclavicle 1.10325e-014 -2.34566e-014
lhumerus -27.6154 1.02384 83.3893
lradius 30.433
lwrist 0.23843
lhand -21.195 -12.4194
lfingers 7.12502
lthumb 5.18607 17.4971
rfemur -22.0681 6.92562 17.6624
rtibia 4.26998
rfoot -16.7725 -7.11651
rtoes -28.5901
lfemur -23.185 -8.84815 -21.4696
ltibia 7.8949
lfoot 351.384 3.39816
ltoes -38.099
910
root 9.42326 25.1389 -15.0791 -153.02 0.642374 177.993
lowerback -31.2783 -2.55738 -5.91294
upperback -2.77251 -0.047061 -0.804524
thorax 13.2348 0.147176 2.41246
lowerneck -0.871387 -2.10141 -3.21556
upperneck -1.08731 -2.43954 10.612
head -0.00134451 -1.09081 4.01833
rclavicle -1.08338e-014 -9.93923e-015
rhumerus -32.8306 -16.1149 -81.1669
rradius 29.4512
rwrist -1.23887
rhand -8.67118 -50.1191
rfingers 7.12502
rthumb 17.2629 -79.3724
lclavicle -1.08338e-014 -9.93923e-015
lhumerus -27.677 1.09586 83.3453
lradius 30.2734
lwrist 0.301131
lhand -21.3802 -12.1306
lfingers 7.12502
lthumb 5.00729 17.7903
rfemur -22.0845 7.08918 17.7178
rtibia 4.25819
rfoot -16.771 -7.274
rtoes -28.7453
lfemur -23.2631 -8.81642 -21.3692
ltibia 8.00319
lfoot 351.33 3.38393
ltoes -37.9965
911
root 9.42451 25.1404 -15.079 -152.995 0.589094 178.108
lowerback -31.4129 -2.56891 -5.83938
upperback -2.64744 -0.101131 -0.755627
thorax 13.4406 0.108603 2.40284
lowerneck -0.603877 -1.94707 -3.03968
upperneck -1.58814 -2.18273 10.5672
head -0.231933 -0.979233 3.97613
rclavicle 7.7526e-015 -3.53837e-014
rhumerus -32.6067 -16.3415 -81.1148
rradius 29.2398
rwrist -1.04589
rhand -8.48303 -49.9841
rfingers 7.12502
rthumb 17.444 -79.2214
lclavicle 7.7526e-015 -3.53837e-014
lhumerus -27.4321 1.35698 83.229
lradius 29.8531
lwrist 0.0198503
lhand -21.4138 -12.1607
lfingers 7.12502
lthumb 4.97477 17.7609
rfemur -22.1119 7.24207 17.8363
rtibia 4.26355
rfoot -16.7607 -7.42769
rtoes -28.8628
lfemur -23.359 -8.74682 -21.2081
ltibia 8.1368
lfoot 351.235 3.36973
ltoes -38.1608
912
root 9.4237 25.1402 -15.0798 -152.957 0.532362 178.16
lowerback -31.2809 -2.53073 -5.73301
upperback -2.77116 -0.0803564 -0.785907
thorax 13.241 0.139845 2.32284
lowerneck -0.81146 -2.12531 -3.1218
upperneck -1.30757 -2.44497 10.6619
head -0.0826944 -1.09706 4.01973
rclavicle -3.57812e-015 -1.90833e-014
rhumerus -32.8376 -16.5704 -80.9636
rradius 29.0975
rwrist -0.958722
rhand -8.19276 -50.5989
rfingers 7.12502
rthumb 17.7234 -79.8112
lclavicle -3.57812e-015 -1.90833e-014
lhumerus -27.4821 1.4712 83.0966
lradius 29.3072
lwrist -0.344399
lhand -21.3237 -12.3259
lfingers 7.12502
lthumb 5.06178 17.5936
rfemur -22.1484 7.21015 17.9106
rtibia 4.26805
rfoot -16.8051 -7.42843
rtoes -28.9732
lfemur -23.4307 -8.72854 -21.1318
ltibia 8.19111
lfoot 351.201 3.34651
ltoes -38.227
